<?xml version="1.0" standalone="no"?>
<!DOCTYPE svg PUBLIC "-//W3C//DTD SVG 20010904//EN"
 "http://www.w3.org/TR/2001/REC-SVG-20010904/DTD/svg10.dtd">
<svg version="1.0" xmlns="http://www.w3.org/2000/svg"
 width="315.000000pt" height="253.000000pt" viewBox="0 0 315.000000 253.000000"
 preserveAspectRatio="xMidYMid meet">

<g transform="translate(0.000000,253.000000) scale(0.100000,-0.100000)"
fill="#000000" stroke="none">
<path d="M11 2023 c1 -274 5 -475 9 -447 11 74 36 143 76 210 45 76 37 67 319
332 132 124 281 265 332 314 l92 88 -414 0 -415 0 1 -497z"/>
<path d="M640 2143 c-241 -227 -402 -385 -419 -414 -53 -84 -91 -239 -59 -239
9 0 17 21 25 66 39 226 250 382 469 346 182 -30 324 -169 355 -349 6 -35 15
-63 20 -63 5 0 9 217 9 510 0 281 -2 510 -4 510 -3 0 -181 -165 -396 -367z"/>
<path d="M496 1750 c-88 -35 -161 -126 -179 -227 -8 -42 20 -47 29 -5 21 98
72 168 148 203 84 38 197 19 273 -45 37 -31 83 -118 83 -158 0 -19 5 -28 16
-28 23 0 12 65 -21 130 -64 125 -216 182 -349 130z"/>
<path d="M555 1596 c-38 -17 -62 -43 -70 -78 l-7 -28 116 0 116 0 0 24 c0 25
-52 86 -73 86 -7 0 -21 2 -32 5 -11 3 -33 -1 -50 -9z"/>
<path d="M70 1028 c-5 -13 -23 -117 -40 -231 -22 -153 -27 -213 -20 -227 10
-19 22 -20 180 -20 207 0 201 -5 175 134 -21 108 -34 126 -87 126 -48 0 -48
23 0 28 49 5 56 21 42 99 -20 111 -23 113 -140 113 -95 0 -101 -1 -110 -22z
m158 -97 c3 -91 -1 -101 -50 -101 l-28 0 0 96 0 95 38 -3 37 -3 3 -84z m-15
-134 c15 -10 17 -27 15 -112 l-3 -100 -35 0 -35 0 -3 99 c-1 55 0 106 2 113 7
17 37 17 59 0z"/>
<path d="M505 920 c-9 -15 -53 -343 -48 -357 7 -19 149 -18 156 1 3 8 -3 79
-14 158 -10 78 -19 151 -19 161 0 25 34 18 38 -8 6 -31 22 -45 52 -45 47 0 78
58 48 88 -15 15 -204 17 -213 2z"/>
<path d="M788 905 c-9 -19 -7 -29 6 -50 25 -39 75 -32 96 12 16 36 45 43 58
16 4 -10 7 -38 6 -63 l-1 -45 -79 -3 c-93 -3 -108 -14 -123 -83 -16 -74 -14
-126 5 -133 9 -3 90 -6 180 -6 125 0 166 3 170 13 7 18 -61 334 -76 352 -10
12 -37 15 -121 15 -107 0 -110 -1 -121 -25z m165 -253 l2 -82 -30 0 c-45 0
-55 16 -55 85 0 69 12 87 53 83 l28 -3 2 -83z"/>
<path d="M1215 918 c-8 -23 -45 -298 -45 -333 l0 -35 69 0 c54 0 70 4 75 16 3
9 6 87 6 175 l0 159 29 0 c17 0 31 -6 35 -16 3 -9 6 -82 6 -163 0 -101 4 -151
12 -159 7 -7 39 -12 75 -12 57 0 63 2 63 21 0 47 -63 325 -78 342 -13 14 -33
17 -129 17 -82 0 -115 -3 -118 -12z"/>
<path d="M1670 912 c-18 -15 -26 -43 -47 -166 -35 -208 -44 -196 152 -196 199
0 193 -6 164 165 -27 160 -36 193 -59 205 -10 5 -57 10 -103 10 -66 0 -90 -4
-107 -18z m150 -166 c3 -81 2 -152 -1 -158 -3 -5 -24 -8 -45 -6 l-39 3 3 145
c1 80 5 151 7 158 3 8 17 12 37 10 l33 -3 5 -149z"/>
<path d="M2156 905 c-34 -23 -36 -23 -36 -5 0 15 -7 20 -25 20 l-25 0 0 -260
0 -260 30 0 30 0 0 90 0 90 33 -20 c44 -27 105 -26 148 3 104 69 107 283 5
347 -47 29 -113 27 -160 -5z m138 -55 c53 -53 47 -194 -11 -240 -33 -26 -83
-26 -116 0 -68 54 -58 215 17 261 38 24 71 18 110 -21z"/>
<path d="M2514 912 c-26 -13 -46 -31 -57 -53 -16 -34 -16 -34 10 -43 22 -7 29
-5 38 9 25 44 45 55 95 55 41 0 56 -5 75 -25 26 -25 33 -59 15 -70 -6 -4 -50
-13 -98 -21 -49 -8 -98 -22 -112 -32 -56 -42 -63 -117 -15 -162 38 -36 125
-39 187 -7 45 23 48 23 53 6 4 -12 16 -19 33 -19 l27 0 -3 132 c-3 169 -7 190
-38 219 -35 33 -149 39 -210 11z m186 -202 c0 -35 -27 -88 -54 -106 -35 -22
-101 -22 -126 1 -23 21 -26 67 -6 84 13 11 123 38 164 40 16 1 22 -5 22 -19z"/>
<path d="M2914 916 c-65 -29 -100 -109 -91 -208 9 -106 60 -159 154 -165 75
-5 120 18 150 77 25 48 23 60 -11 60 -17 0 -27 -9 -36 -30 -27 -66 -109 -82
-160 -32 -52 52 -49 184 5 238 34 34 97 33 130 -1 14 -13 25 -29 25 -35 0 -5
14 -10 30 -10 34 0 36 8 15 51 -33 63 -133 89 -211 55z"/>
<path d="M8 180 l3 -110 65 0 c36 0 64 4 64 10 0 6 -25 10 -55 10 l-55 0 0
100 c0 73 -3 100 -12 100 -10 0 -12 -27 -10 -110z"/>
<path d="M2118 279 c-21 -12 -24 -62 -5 -77 7 -6 37 -19 67 -29 47 -15 55 -22
55 -43 0 -17 -8 -29 -29 -39 -25 -12 -33 -11 -62 3 -19 8 -34 22 -34 31 0 8
-4 15 -10 15 -17 0 -11 -29 10 -50 28 -28 102 -28 130 0 42 42 13 93 -59 105
-53 9 -75 29 -61 56 20 37 93 36 105 -2 7 -22 25 -26 25 -6 0 39 -87 63 -132
36z"/>
<path d="M210 270 c0 -5 5 -10 10 -10 6 0 10 5 10 10 0 6 -4 10 -10 10 -5 0
-10 -4 -10 -10z"/>
<path d="M270 270 c0 -5 5 -10 10 -10 6 0 10 5 10 10 0 6 -4 10 -10 10 -5 0
-10 -4 -10 -10z"/>
<path d="M1910 255 c0 -14 -5 -25 -11 -25 -8 0 -8 -4 -1 -13 6 -7 12 -42 14
-77 3 -61 5 -65 28 -68 23 -2 24 -1 8 11 -22 17 -26 132 -5 140 10 4 10 6 0 6
-7 1 -13 12 -13 26 0 14 -4 25 -10 25 -5 0 -10 -11 -10 -25z"/>
<path d="M2658 274 c-5 -4 -8 -16 -8 -26 0 -10 -6 -18 -12 -18 -10 0 -10 -2
-1 -8 7 -4 13 -37 15 -77 3 -64 5 -70 26 -73 12 -2 22 1 22 7 0 6 -7 11 -15
11 -12 0 -15 14 -15 64 0 53 3 65 18 69 15 4 15 5 0 6 -10 1 -18 11 -20 27 -2
14 -6 22 -10 18z"/>
<path d="M200 210 c-27 -27 -27 -93 0 -120 47 -47 120 -11 120 60 0 49 -27 80
-70 80 -17 0 -39 -9 -50 -20z m82 -7 c36 -32 14 -123 -30 -123 -46 0 -70 83
-35 122 20 22 41 23 65 1z"/>
<path d="M382 218 c-7 -7 -12 -22 -12 -34 0 -18 10 -26 50 -39 50 -17 60 -31
38 -53 -19 -19 -55 -14 -71 9 -9 11 -18 16 -21 11 -11 -18 24 -42 59 -42 35 0
65 21 65 45 0 17 -38 45 -60 45 -9 0 -25 6 -35 14 -16 12 -17 16 -6 30 17 21
45 20 66 0 9 -9 19 -13 23 -9 11 11 -29 35 -58 35 -14 0 -31 -5 -38 -12z"/>
<path d="M542 164 c-1 -43 3 -75 10 -82 16 -16 61 -15 76 0 10 10 15 10 22 -2
7 -10 10 12 10 68 0 48 -4 82 -10 82 -6 0 -10 -28 -10 -65 0 -54 -3 -66 -20
-75 -12 -6 -29 -8 -40 -5 -19 6 -26 29 -33 110 -2 22 -4 9 -5 -31z"/>
<path d="M720 150 c0 -47 4 -80 10 -80 6 0 10 26 10 58 0 44 5 63 18 75 42 38
72 7 72 -74 0 -33 4 -59 10 -59 11 0 13 91 4 128 -8 27 -46 39 -80 23 -15 -6
-24 -7 -24 -1 0 6 -4 10 -10 10 -6 0 -10 -33 -10 -80z"/>
<path d="M917 212 c-24 -27 -22 -97 3 -122 22 -22 42 -25 71 -10 16 9 19 7 19
-13 0 -12 -5 -28 -12 -35 -18 -18 -66 -15 -77 5 -5 10 -13 15 -17 11 -15 -15
19 -38 57 -38 60 0 69 17 69 128 0 65 -3 92 -10 82 -7 -12 -12 -12 -22 -2 -18
18 -62 15 -81 -6z m77 -8 c36 -36 28 -91 -16 -115 -19 -10 -25 -8 -46 16 -18
22 -22 35 -18 59 10 50 50 71 80 40z"/>
<path d="M1100 203 c-26 -33 -22 -99 6 -120 27 -20 78 -16 99 7 10 11 13 20 8
20 -6 0 -16 -7 -23 -15 -18 -22 -57 -18 -74 7 -28 40 -21 48 44 48 53 0 60 2
60 20 0 57 -83 80 -120 33z m81 7 c10 -6 19 -20 19 -30 0 -17 -7 -20 -50 -20
-54 0 -58 4 -34 38 17 24 35 28 65 12z"/>
<path d="M1270 150 c0 -47 4 -80 10 -80 6 0 10 25 10 55 0 42 5 60 20 75 43
43 70 18 70 -67 0 -35 4 -63 10 -63 13 0 13 116 0 141 -12 22 -59 26 -79 7
-11 -10 -14 -10 -18 0 -13 34 -23 4 -23 -68z"/>
<path d="M1550 150 c0 -47 4 -80 10 -80 6 0 10 26 10 58 0 47 4 63 21 78 35
31 53 9 57 -70 4 -82 22 -88 22 -7 0 41 5 65 16 75 38 39 64 10 64 -71 0 -35
4 -63 10 -63 13 0 13 116 0 141 -12 21 -41 25 -72 8 -14 -8 -23 -8 -31 0 -15
15 -50 14 -66 -1 -11 -10 -14 -10 -18 0 -13 34 -23 4 -23 -68z"/>
<path d="M1833 150 c0 -47 2 -66 4 -42 2 23 2 61 0 85 -2 23 -4 4 -4 -43z"/>
<path d="M2300 227 c0 -1 14 -38 30 -81 33 -84 32 -112 -3 -126 l-22 -9 22 0
c12 -1 27 7 32 17 24 46 78 203 68 199 -6 -2 -20 -31 -31 -65 -11 -34 -23 -62
-26 -62 -4 0 -17 29 -29 65 -13 36 -27 65 -32 65 -5 0 -9 -1 -9 -3z"/>
<path d="M2486 214 c-19 -18 -19 -20 -6 -44 6 -11 26 -22 45 -26 44 -8 62 -28
45 -49 -16 -20 -49 -19 -72 2 -23 21 -35 11 -13 -11 20 -20 78 -21 95 -2 24
29 8 59 -40 76 -52 18 -65 46 -25 56 18 4 32 1 45 -11 11 -10 23 -15 28 -11
11 12 -29 36 -59 36 -15 0 -35 -7 -43 -16z"/>
<path d="M2751 204 c-30 -39 -24 -102 13 -126 22 -15 73 -8 91 12 10 11 13 20
8 20 -6 0 -16 -7 -23 -15 -18 -22 -57 -18 -74 7 -28 40 -21 48 44 48 53 0 60
2 60 20 0 57 -83 80 -119 34z m80 6 c10 -6 19 -20 19 -30 0 -17 -7 -20 -50
-20 -54 0 -61 9 -30 40 23 23 33 24 61 10z"/>
<path d="M2932 150 c1 -84 1 -85 7 -23 7 70 26 99 60 88 19 -6 21 -14 21 -76
0 -39 4 -69 10 -69 6 0 10 26 10 58 0 47 4 63 21 78 35 31 53 9 57 -70 2 -36
7 -66 13 -66 6 0 9 29 7 71 -4 85 -17 101 -70 81 -21 -8 -36 -8 -42 -2 -14 14
-50 12 -64 -2 -10 -10 -15 -10 -22 2 -7 10 -9 -13 -8 -70z"/>
</g>
</svg>
