<?xml version="1.0" standalone="no"?>
<!DOCTYPE svg PUBLIC "-//W3C//DTD SVG 20010904//EN"
 "http://www.w3.org/TR/2001/REC-SVG-20010904/DTD/svg10.dtd">
<svg version="1.0" xmlns="http://www.w3.org/2000/svg"
 width="217.000000pt" height="220.000000pt" viewBox="0 0 217.000000 220.000000"
 preserveAspectRatio="xMidYMid meet">

<g transform="translate(0.000000,220.000000) scale(0.100000,-0.100000)"
fill="#000000" stroke="none">
<path d="M1660 1522 l0 -72 -575 0 -575 0 0 67 0 68 -242 -242 -243 -243 240
-240 240 -240 5 67 5 68 570 0 570 0 5 -68 5 -67 243 242 242 243 -245 245
-245 245 0 -73z m-852 -152 c23 -10 42 -22 42 -25 0 -4 -14 -26 -31 -51 -25
-37 -33 -43 -49 -34 -67 36 -144 -28 -119 -99 12 -34 57 -56 96 -47 16 4 34 8
41 9 8 1 29 -17 48 -39 l35 -42 -38 -23 c-30 -19 -52 -24 -105 -24 -58 0 -72
4 -110 30 -128 89 -113 281 27 346 51 24 109 24 163 -1z m348 1 c23 -10 45
-24 49 -31 10 -16 -76 -92 -90 -79 -19 18 -75 10 -100 -16 -68 -67 25 -177
101 -120 18 14 18 14 -8 15 -26 0 -28 3 -28 40 l0 40 96 0 97 0 -6 -51 c-21
-173 -224 -238 -341 -109 -32 35 -56 92 -56 130 0 64 64 159 125 186 43 19
113 17 161 -5z m411 -17 c133 -99 71 -294 -93 -294 -51 0 -54 -1 -54 -25 0
-24 -3 -25 -60 -25 l-60 0 0 186 0 186 119 -3 c102 -3 124 -7 148 -25z m-1157
-439 c0 -8 -9 -15 -20 -15 -13 0 -20 -7 -20 -20 0 -13 7 -20 20 -20 11 0 20
-7 20 -15 0 -20 -34 -19 -54 1 -31 30 -9 84 35 84 10 0 19 -7 19 -15z m94 2
c28 -20 18 -69 -16 -81 -22 -8 -32 -6 -48 9 -24 22 -25 42 -3 67 19 21 42 23
67 5z m101 -33 c19 -49 15 -65 -11 -44 -13 11 -19 11 -36 1 -11 -7 -22 -10
-25 -7 -10 9 28 96 41 96 8 0 21 -21 31 -46z m75 31 c0 -8 -4 -15 -10 -15 -5
0 -10 -16 -10 -36 0 -24 -4 -34 -12 -31 -8 2 -12 16 -10 34 2 21 -2 32 -13 37
-24 9 -8 26 26 26 19 0 29 -5 29 -15z m35 -35 c0 -26 -5 -45 -12 -47 -9 -3
-13 10 -13 47 0 37 4 50 13 48 7 -3 12 -22 12 -48z m62 23 l22 -28 1 28 c0 15
5 27 10 27 6 0 10 -22 10 -50 0 -56 -9 -62 -39 -25 -19 26 -20 26 -23 4 -2
-12 -9 -24 -15 -27 -9 -2 -13 11 -13 47 0 59 13 65 47 24z m143 12 c10 -12 10
-15 -1 -16 -10 0 -11 -2 -1 -6 15 -6 16 -35 0 -51 -15 -15 -51 -15 -66 0 -15
15 -15 61 0 76 17 17 53 15 68 -3z m90 -35 c0 -27 -4 -50 -10 -50 -5 0 -10 23
-10 50 0 28 5 50 10 50 6 0 10 -22 10 -50z m58 25 c24 -31 29 -31 28 -4 -1 12
5 24 12 26 8 3 12 -10 12 -46 0 -28 -3 -51 -7 -51 -4 0 -20 12 -35 27 l-28 27
0 -27 c0 -15 -4 -27 -10 -27 -5 0 -10 23 -10 50 0 56 9 62 38 25z m111 0 c19
-26 20 -26 23 -4 2 12 9 24 16 27 8 2 12 -11 12 -47 0 -59 -13 -65 -47 -23
l-22 27 -1 -27 c0 -16 -4 -28 -10 -28 -5 0 -10 23 -10 50 0 56 9 62 39 25z
m142 15 c41 -23 16 -90 -35 -90 -20 0 -46 28 -46 50 0 22 26 50 46 50 9 0 24
-5 35 -10z m61 -17 l11 -28 10 28 c13 33 42 38 31 5 -11 -37 -34 -78 -43 -78
-9 0 -41 71 -41 90 0 21 21 9 32 -17z m126 -21 c16 -50 13 -58 -18 -40 -18 10
-24 10 -27 1 -3 -7 -12 -13 -20 -13 -8 0 -13 6 -10 13 2 6 10 29 18 50 17 49
38 45 57 -11z m72 33 c0 -8 -5 -15 -11 -15 -6 0 -9 -14 -7 -32 2 -19 -2 -33
-9 -35 -9 -3 -13 7 -13 31 0 20 -4 36 -10 36 -5 0 -10 7 -10 15 0 10 10 15 30
15 20 0 30 -5 30 -15z m40 -36 c0 -36 -4 -49 -12 -47 -14 5 -23 61 -14 84 12
31 26 11 26 -37z m91 41 c41 -23 16 -90 -35 -90 -20 0 -46 28 -46 50 0 22 26
50 46 50 9 0 24 -5 35 -10z m76 -17 l22 -28 1 28 c0 43 24 28 28 -18 5 -55
-14 -67 -44 -30 l-24 30 0 -28 c0 -40 -24 -29 -28 12 -4 35 3 61 15 61 4 0 17
-12 30 -27z"/>
<path d="M1415 1220 l0 -41 50 3 c44 3 50 6 53 26 5 35 -15 52 -62 52 l-41 0
0 -40z"/>
<path d="M450 880 c0 -16 5 -21 23 -18 12 2 22 10 22 18 0 8 -10 16 -22 18
-18 3 -23 -2 -23 -18z"/>
<path d="M871 896 c-14 -16 -4 -46 15 -46 17 0 18 17 2 23 -10 4 -10 8 1 15 8
6 9 12 3 16 -5 3 -15 0 -21 -8z"/>
<path d="M1270 880 c0 -16 5 -21 23 -18 12 2 22 10 22 18 0 8 -10 16 -22 18
-18 3 -23 -2 -23 -18z"/>
<path d="M1660 880 c0 -23 35 -28 43 -6 7 18 -1 26 -25 26 -11 0 -18 -7 -18
-20z"/>
</g>
</svg>
