<svg width="100" height="100" viewBox="0 0 100 100" xmlns="http://www.w3.org/2000/svg">
  <defs>
    <pattern id="eco-grid" width="20" height="20" patternUnits="userSpaceOnUse">
      <path fill="none" stroke="#7cb342" stroke-width="0.3" stroke-opacity="0.2" d="M 20 0 L 0 0 0 20" />
    </pattern>
    <pattern id="fiber-texture" width="100" height="100" patternUnits="userSpaceOnUse">
      <rect width="100" height="100" fill="#f5f5f5" />
      <!-- Horizontal fibers -->
      <g stroke="#7cb342" stroke-opacity="0.05" stroke-width="0.5">
        <line x1="0" y1="10" x2="100" y2="10" />
        <line x1="0" y1="30" x2="100" y2="30" />
        <line x1="0" y1="50" x2="100" y2="50" />
        <line x1="0" y1="70" x2="100" y2="70" />
        <line x1="0" y1="90" x2="100" y2="90" />
      </g>
      <!-- Vertical fibers -->
      <g stroke="#7cb342" stroke-opacity="0.05" stroke-width="0.5">
        <line x1="10" y1="0" x2="10" y2="100" />
        <line x1="30" y1="0" x2="30" y2="100" />
        <line x1="50" y1="0" x2="50" y2="100" />
        <line x1="70" y1="0" x2="70" y2="100" />
        <line x1="90" y1="0" x2="90" y2="100" />
      </g>
      <!-- Subtle texture dots -->
      <g fill="#7cb342" fill-opacity="0.03">
        <circle cx="10" cy="10" r="1" />
        <circle cx="30" cy="30" r="1" />
        <circle cx="50" cy="50" r="1" />
        <circle cx="70" cy="70" r="1" />
        <circle cx="90" cy="90" r="1" />
        <circle cx="10" cy="90" r="1" />
        <circle cx="90" cy="10" r="1" />
        <circle cx="30" cy="70" r="1" />
        <circle cx="70" cy="30" r="1" />
      </g>
    </pattern>
  </defs>
  <rect width="100" height="100" fill="url(#fiber-texture)" />
  <rect width="100" height="100" fill="url(#eco-grid)" />
</svg>
