<?xml version="1.0" standalone="no"?>
<!DOCTYPE svg PUBLIC "-//W3C//DTD SVG 20010904//EN"
 "http://www.w3.org/TR/2001/REC-SVG-20010904/DTD/svg10.dtd">
<svg version="1.0" xmlns="http://www.w3.org/2000/svg"
 width="400.000000pt" height="400.000000pt" viewBox="0 0 400.000000 400.000000"
 preserveAspectRatio="xMidYMid meet">

<g transform="translate(0.000000,400.000000) scale(0.100000,-0.100000)"
fill="#000000" stroke="none">
<path d="M393 2480 c-54 -24 -83 -70 -83 -130 0 -81 47 -129 166 -170 78 -27
104 -46 104 -74 0 -36 -26 -51 -90 -50 -43 1 -70 8 -113 31 l-57 31 0 -55 0
-54 48 -22 c66 -31 199 -31 257 -1 55 29 85 75 85 133 0 84 -37 121 -182 181
-88 36 -106 61 -68 92 29 23 90 23 160 -2 30 -11 59 -19 63 -20 4 0 7 21 5 48
-3 47 -3 47 -53 64 -70 24 -188 23 -242 -2z"/>
<path d="M1120 2235 l0 -265 55 0 55 0 0 114 c0 109 1 114 26 140 33 33 77 35
98 4 12 -16 16 -47 16 -111 0 -77 2 -88 16 -83 9 3 33 9 55 12 l39 7 0 84 c0
140 -33 188 -130 188 -47 0 -63 -4 -82 -22 -14 -13 -27 -23 -31 -23 -4 0 -7
50 -7 110 l0 110 -55 0 -55 0 0 -265z"/>
<path d="M2385 2476 c-54 -54 -13 -116 53 -82 32 16 47 48 40 83 -5 30 -62 30
-93 -1z"/>
<path d="M2800 2404 c0 -95 0 -95 -22 -87 -13 4 -50 8 -83 8 -47 0 -67 -5 -94
-24 -103 -74 -92 -262 19 -318 52 -27 87 -29 138 -8 24 10 38 12 40 5 2 -5 28
-10 58 -10 l54 0 0 265 0 265 -55 0 -55 0 0 -96z m-26 -154 c25 -9 26 -12 26
-99 0 -90 0 -91 -30 -106 -43 -22 -68 -19 -101 14 -25 26 -29 37 -29 86 0 49
4 60 29 86 31 30 61 36 105 19z"/>
<path d="M840 2302 c-38 -19 -59 -38 -74 -67 -29 -55 -28 -138 1 -186 44 -70
151 -104 252 -79 51 12 51 12 51 52 0 34 -3 39 -17 33 -37 -15 -114 -18 -140
-4 -29 16 -53 58 -53 94 0 36 24 78 53 94 26 14 103 11 140 -4 14 -6 17 -1 17
33 0 39 -2 42 -37 51 -69 19 -136 13 -193 -17z"/>
<path d="M1686 2305 c-34 -23 -36 -23 -36 -5 0 18 -7 20 -55 20 l-55 0 0 -130
0 -129 38 -6 c20 -4 45 -9 55 -12 15 -4 17 4 17 79 0 79 2 86 28 111 31 30 59
34 88 13 17 -13 19 -29 22 -145 l4 -131 55 0 55 0 -4 138 c-2 85 -9 146 -17
160 -34 62 -131 81 -195 37z"/>
<path d="M2042 2309 c-59 -30 -92 -88 -92 -163 0 -65 16 -102 60 -140 60 -50
182 -60 264 -21 31 15 36 22 36 51 l0 33 -32 -19 c-91 -52 -193 -27 -213 53
l-7 27 132 0 133 0 -7 41 c-9 57 -30 93 -72 126 -50 38 -140 44 -202 12z m153
-64 c14 -13 25 -33 25 -45 0 -18 -6 -20 -80 -20 -92 0 -101 11 -51 61 36 36
73 37 106 4z"/>
<path d="M3065 2311 c-48 -22 -69 -44 -90 -94 -32 -76 -8 -172 53 -216 64 -45
181 -52 258 -15 32 16 40 25 42 52 l3 33 -38 -19 c-87 -44 -169 -36 -203 21
-35 56 -32 57 110 57 l130 0 0 29 c0 127 -142 209 -265 152z m139 -63 c14 -13
26 -32 28 -43 3 -18 -3 -20 -74 -23 -77 -3 -78 -3 -78 22 0 29 42 66 76 66 12
0 34 -10 48 -22z"/>
<path d="M3562 2303 c-15 -16 -35 -39 -44 -53 l-17 -25 0 48 -1 47 -55 0 -55
0 0 -175 0 -175 55 0 55 0 0 75 c0 56 5 86 20 115 33 65 68 79 132 55 10 -4
18 6 26 33 16 54 16 57 -13 70 -42 19 -74 14 -103 -15z"/>
<path d="M2370 2145 l0 -175 55 0 55 0 0 175 0 175 -55 0 -55 0 0 -175z"/>
<path d="M1450 2004 c-65 -18 -130 -58 -185 -113 l-39 -41 38 0 c31 0 37 -3
32 -16 -3 -9 -6 -20 -6 -25 0 -5 -22 -9 -49 -9 -40 0 -50 -4 -54 -20 -4 -17 1
-19 43 -22 45 -3 47 -4 39 -25 -7 -20 -16 -23 -59 -23 l-50 0 0 -47 c0 -61 25
-111 70 -141 30 -20 45 -23 105 -20 89 4 169 42 239 112 l51 51 -43 3 c-38 3
-43 6 -40 25 3 19 10 22 58 25 49 3 69 13 70 35 0 4 -25 7 -55 7 -55 0 -61 4
-49 34 5 12 21 16 66 16 l60 0 -4 55 c-10 118 -108 175 -238 139z m168 -124
c-10 -38 -12 -40 -49 -40 -38 0 -39 0 -54 -57 -30 -107 -36 -120 -58 -140 -37
-34 -65 -44 -137 -50 -94 -8 -100 -4 -87 46 10 39 13 40 56 43 l45 3 18 80
c28 122 69 154 199 155 l77 0 -10 -40z"/>
<path d="M1800 1745 l0 -155 90 0 c83 0 90 1 90 20 0 18 -7 20 -70 20 l-70 0
0 50 0 50 65 0 c51 0 65 3 65 15 0 12 -14 15 -65 15 l-65 0 0 50 0 50 65 0
c58 0 65 2 65 20 0 18 -7 20 -85 20 l-85 0 0 -155z"/>
<path d="M2080 1745 c0 -148 1 -155 20 -155 19 0 20 7 20 155 0 148 -1 155
-20 155 -19 0 -20 -7 -20 -155z"/>
<path d="M3300 1854 c0 -9 7 -14 17 -12 25 5 28 28 4 28 -12 0 -21 -6 -21 -16z"/>
<path d="M2821 1796 c-26 -27 -31 -36 -18 -36 14 0 17 -10 17 -63 0 -82 18
-109 68 -105 49 4 57 33 10 33 l-33 0 -3 68 -3 67 31 0 c20 0 30 5 30 15 0 10
-10 15 -29 15 -22 0 -30 5 -33 21 -3 18 -6 17 -37 -15z"/>
<path d="M2303 1793 c-63 -12 -85 -116 -37 -172 20 -24 34 -31 62 -31 56 0 82
10 82 31 0 16 -4 17 -26 9 -40 -16 -63 -12 -89 15 -39 38 -32 45 50 45 41 0
75 4 75 9 0 34 -26 75 -56 87 -18 8 -35 13 -36 13 -2 -1 -13 -4 -25 -6z m55
-39 c40 -28 28 -44 -33 -44 -52 0 -55 1 -45 20 9 17 37 39 50 40 3 0 16 -7 28
-16z"/>
<path d="M2575 1786 c-61 -27 -75 -118 -25 -167 26 -26 36 -30 77 -27 36 2 49
7 51 20 3 14 -3 16 -32 11 -53 -8 -86 17 -86 66 0 50 26 75 75 69 29 -3 35 -1
35 14 0 10 -6 18 -12 18 -7 0 -22 2 -33 5 -11 3 -34 -1 -50 -9z"/>
<path d="M3120 1792 c-8 -2 -23 -14 -32 -26 l-18 -21 0 23 c0 15 -6 22 -20 22
-19 0 -20 -7 -20 -100 0 -93 1 -100 20 -100 18 0 20 7 20 63 0 83 19 111 66
102 21 -3 34 -2 34 5 0 5 0 13 1 17 1 10 -34 21 -51 15z"/>
<path d="M3515 1793 c-80 -20 -97 -154 -25 -193 31 -17 104 -9 108 12 3 14 -3
15 -36 11 -32 -4 -44 -1 -61 16 -25 25 -27 68 -5 100 14 20 23 23 60 18 33 -3
44 -1 44 9 0 8 -12 19 -26 24 -27 10 -27 11 -59 3z"/>
<path d="M3300 1690 c0 -93 1 -100 20 -100 19 0 20 7 20 100 0 93 -1 100 -20
100 -19 0 -20 -7 -20 -100z"/>
</g>
</svg>
