<svg xmlns="http://www.w3.org/2000/svg" width="200" height="80" viewBox="0 0 200 80">
  <g>
    <path fill="#DC0F1C" d="M50.5,15.3h15.2v5.8h-9.1v3.4h8.2v5.8h-8.2v9.6h-6.1V15.3z"/>
    <path fill="#DC0F1C" d="M68.6,15.3h6.1v9.6h7.5v-9.6h6.1v24.6h-6.1v-9.2h-7.5v9.2h-6.1V15.3z"/>
    <path fill="#DC0F1C" d="M116.3,40h-6.1l-1.2-4h-7.9l-1.2,4h-6.1l7.8-24.6h6.9L116.3,40z M107.5,30.1l-2.6-8.9l-2.7,8.9H107.5z"/>
    <path fill="#DC0F1C" d="M116.8,15.3h12.5c4.2,0,7.6,3.4,7.6,7.6c0,3.3-2.1,6.1-5.1,7.1l6.4,9.9h-7l-5.5-9h-2.8v9h-6.1V15.3z M128.9,25.1 c1.1,0,2.1-0.9,2.1-2.1c0-1.1-0.9-2.1-2.1-2.1h-6v4.2H128.9z"/>
  </g>
  <g>
    <path fill="#6A6B6D" d="M150.6,30h-3l-0.5-1.7h-3.2l-0.5,1.7h-3l3.2-10.1h2.8L150.6,30z M146.8,25.9l-1.1-3.6l-1.1,3.6H146.8z"/>
    <path fill="#6A6B6D" d="M152.3,19.9h5.9c1.6,0,2.8,1.3,2.8,2.9c0,1.6-1.3,2.9-2.8,2.9h-3v4.4h-3V19.9z M157.5,23.1 c0.2,0,0.5-0.3,0.5-0.5c0-0.3-0.2-0.5-0.5-0.5h-2.2v1H157.5z"/>
    <path fill="#6A6B6D" d="M165.7,19.9h3v10.1h-3V19.9z"/>
    <path fill="#6A6B6D" d="M170.9,19.9h3v7.9h4.1V30h-7.1V19.9z"/>
  </g>
  <g>
    <path fill="#DC0F1C" d="M45.2,40c-12.2,0-22.2,10-22.2,22.2c0,12.2,10,22.2,22.2,22.2c12.2,0,22.2-10,22.2-22.2C67.4,50,57.4,40,45.2,40z M45.2,75.3 c-7.2,0-13.1-5.9-13.1-13.1c0-7.2,5.9-13.1,13.1-13.1c7.2,0,13.1,5.9,13.1,13.1C58.3,69.4,52.4,75.3,45.2,75.3z"/>
  </g>
</svg>
