<svg version="1.1" id="Layer_1" xmlns="http://www.w3.org/2000/svg" 
     xmlns:xlink="http://www.w3.org/1999/xlink" x="0px" y="0px"
     width="800px" height="800px" viewBox="0 0 200 200" enable-background="new 0 0 200 200" xml:space="preserve">
<path fill="#FEFEFE" opacity="1.000000" stroke="none" 
	d="
M87.000000,201.000000 
	C58.000000,201.000000 29.500004,201.000000 1.000004,201.000000 
	C1.000003,134.333344 1.000003,67.666679 1.000001,1.000013 
	C67.666656,1.000009 134.333313,1.000009 200.999969,1.000004 
	C200.999985,67.666649 200.999985,134.333298 201.000000,200.999969 
	C163.166672,201.000000 125.333336,201.000000 87.000000,201.000000 
M131.971420,110.052498 
	C131.417343,110.317665 130.863281,110.582832 129.896561,110.060104 
	C129.983856,107.710953 130.071136,105.361794 130.850815,103.001900 
	C131.542358,103.032043 132.233902,103.062187 133.095306,103.362465 
	C133.203293,103.400650 133.311279,103.438835 133.419266,103.477020 
	C133.316559,103.287727 133.213867,103.098427 133.014282,102.300262 
	C132.036041,102.195343 131.057785,102.090416 129.762177,101.307846 
	C128.685379,96.834885 126.240929,93.569130 122.238815,91.036652 
	C112.813828,85.072647 99.172737,87.437759 91.683067,96.703247 
	C84.663330,105.387375 85.518234,118.295624 93.665596,126.133598 
	C96.083778,128.459961 98.581200,130.703949 100.513710,133.326187 
	C100.359261,133.915222 100.204819,134.504257 100.431236,135.698364 
	C101.612022,135.885376 102.792801,136.072388 104.467590,136.783234 
	C105.661400,136.828064 106.855202,136.872894 108.830376,137.011276 
	C109.877144,136.979843 110.923920,136.948395 112.769974,137.006134 
	C114.845619,136.663742 116.921272,136.321350 119.522820,136.017151 
	C119.836296,135.876175 120.149773,135.735199 121.162872,135.397415 
	C122.079262,134.599945 122.995651,133.802460 124.591652,133.034103 
	C125.408020,132.480759 126.224388,131.927429 127.708588,131.297348 
	C128.129929,131.171448 128.551270,131.045563 129.089050,131.270493 
	C129.201935,131.320328 129.314804,131.370178 129.427689,131.420013 
	C129.261002,131.274475 129.094299,131.128952 129.079071,130.250824 
	C129.070160,130.001617 129.061264,129.752411 129.020996,129.497757 
	C129.020996,129.497757 129.008408,129.546097 129.201553,128.762466 
	C130.435638,126.226562 131.268509,123.372124 132.980545,121.215660 
	C137.743164,115.216682 140.098526,108.667343 139.095856,100.167900 
	C138.558670,95.034004 138.027328,89.896683 131.546417,87.510132 
	C130.930069,85.521950 130.936157,82.664642 129.587616,81.698853 
	C124.278183,77.896400 118.542801,74.688713 112.522507,70.987686 
	C112.349129,70.987953 112.175743,70.988228 111.595558,70.583687 
	C111.059593,70.424507 110.523628,70.265327 109.628510,69.814919 
	C109.347931,69.640373 109.049782,69.601868 108.289230,69.212120 
	C107.864365,69.180290 107.439507,69.148460 106.283691,68.982040 
	C103.523094,68.064491 100.762505,67.146950 97.436951,65.969635 
	C95.995598,65.966461 94.554253,65.963280 92.878593,65.322441 
	C92.022423,65.152130 91.166252,64.981827 89.606110,64.429359 
	C87.739059,64.284660 85.872002,64.139961 84.098335,63.973961 
	C84.098335,63.973961 84.095764,63.878162 83.812134,63.617123 
	C83.448967,63.650715 83.085800,63.684303 82.093109,63.557114 
	C81.236336,63.519276 80.379570,63.481438 78.712746,63.081013 
	C76.284607,63.047859 73.822868,62.748684 71.436974,63.049999 
	C68.561180,63.413193 65.749771,64.286240 62.185951,64.936218 
	C57.766605,65.439240 53.347263,65.942261 48.428478,66.366585 
	C47.975872,66.583900 47.523270,66.801224 46.533623,66.976006 
	C46.365139,67.038147 46.196659,67.100281 45.407871,67.086868 
	C44.649883,67.413803 43.891891,67.740738 42.463879,68.052109 
	C41.645973,68.382469 40.828064,68.712830 39.347824,69.003601 
	C38.769505,69.292038 38.191185,69.580482 36.876732,69.872589 
	C33.259735,71.285263 29.642735,72.697929 25.300734,74.152405 
	C23.641407,74.898888 22.019836,75.749489 20.314123,76.368065 
	C17.586258,77.357315 15.282413,78.609619 14.943937,82.501770 
	C9.466022,80.686920 6.669881,83.149864 7.665978,89.225525 
	C9.905394,88.092522 12.257151,87.238930 14.159947,85.794083 
	C15.072363,85.101250 15.135374,83.289803 16.288858,81.962280 
	C20.270781,80.507729 25.461962,81.892693 28.781652,77.083618 
	C32.517597,76.041893 36.253544,75.000168 40.667248,74.231873 
	C40.933468,75.534904 41.608849,76.907616 41.400681,78.129852 
	C39.841805,87.282692 37.864040,96.369354 36.495247,105.547997 
	C34.987015,115.661674 33.987926,125.851273 32.779045,135.907959 
	C37.736214,137.668121 40.078377,136.997162 40.366184,131.609879 
	C40.879292,122.005363 41.752026,112.396790 43.018520,102.862190 
	C44.346432,92.865204 46.313950,82.953171 48.708363,72.996689 
	C49.184654,72.349876 49.660946,71.703056 50.889503,71.062569 
	C51.950909,71.139938 53.069271,71.475510 54.065147,71.255821 
	C68.407120,68.092041 82.706398,69.085129 97.730392,71.931129 
	C99.826591,72.266518 101.922791,72.601906 104.520775,73.239525 
	C105.014946,73.448524 105.509117,73.657532 106.719414,74.023407 
	C107.438690,74.162476 108.157967,74.301544 109.402550,74.855278 
	C116.954735,79.202423 124.506927,83.549568 132.536179,88.452011 
	C133.765259,94.278671 134.994354,100.105339 135.978241,106.736580 
	C135.840027,111.165543 135.570969,115.542000 131.158844,117.705330 
	C130.288834,117.542908 129.418823,117.380493 128.548828,117.218079 
	C128.536896,117.532013 128.524963,117.845947 128.513031,118.159882 
	C129.407730,118.249718 130.302429,118.339554 131.520737,119.123466 
	C130.040649,119.759888 128.560577,120.396309 126.377060,121.009460 
	C125.575287,120.652466 124.773521,120.295471 124.267815,119.350121 
	C126.013474,117.484047 127.759132,115.617973 129.786682,114.084320 
	C129.972137,114.073463 130.157578,114.062607 130.343033,114.051750 
	C130.119675,113.886772 129.896317,113.721794 129.154907,113.060120 
	C129.556290,112.356384 129.957687,111.652641 131.118118,110.941147 
	C131.783875,110.656174 132.449646,110.371201 133.523102,109.788216 
	C133.493835,109.388069 133.464569,108.987930 133.435303,108.587784 
	C133.250549,109.021118 133.065796,109.454445 131.971420,110.052498 
M55.636280,97.994408 
	C54.069176,110.929329 52.502068,123.864258 50.882847,137.229355 
	C53.033310,136.973892 54.422489,136.808868 55.657970,136.662109 
	C56.380180,130.473160 57.048763,124.743736 57.767544,118.584160 
	C63.336834,122.771667 68.913956,123.463631 74.362900,120.004379 
	C79.819901,116.540001 81.409721,110.910599 80.863029,104.804001 
	C80.130775,96.624596 72.600395,92.164093 64.872322,94.969360 
	C63.010719,95.645111 61.024036,98.377968 59.118439,94.968498 
	C57.994907,95.694832 56.871376,96.421165 55.636280,97.994408 
M171.174438,121.678635 
	C172.671417,121.829300 174.168396,121.979958 175.578552,122.121880 
	C176.187302,117.915215 176.697525,114.389511 177.231033,110.702820 
	C183.573074,113.349480 183.456085,123.943497 192.928726,121.844780 
	C189.060730,116.769302 185.467773,112.054733 181.763992,107.194725 
	C185.905548,103.522491 189.814453,100.056564 194.028824,96.319771 
	C185.758530,94.327896 183.598862,102.442596 177.882843,104.588783 
	C179.040955,95.006752 180.173126,85.639290 181.317520,76.170685 
	C179.532791,76.170685 178.257767,76.170685 176.708115,76.170685 
	C174.826157,91.187447 172.965698,106.032692 171.174438,121.678635 
M164.727142,95.712761 
	C162.970337,95.232841 161.240463,94.529533 159.451797,94.313736 
	C153.426300,93.586800 147.658981,96.675941 144.873642,101.927025 
	C141.971313,107.398674 142.307602,113.714943 145.881134,117.871170 
	C149.720886,122.336998 154.715729,122.845436 160.028061,121.473976 
	C164.152039,120.409302 164.583710,119.557701 164.303757,114.940788 
	C157.661499,118.893784 152.638092,118.826241 149.523178,114.742050 
	C146.890640,111.290344 147.347473,105.263069 150.504913,101.789452 
	C154.310074,97.603233 159.929169,97.502274 166.946808,102.431534 
	C166.285385,99.556534 165.873840,97.767670 164.727142,95.712761 
M151.742111,135.942032 
	C147.008148,134.805176 142.495758,135.035904 138.254684,136.941223 
	C138.317123,137.451385 138.379562,137.961548 138.442001,138.471710 
	C143.843643,138.471710 149.245285,138.471710 154.646942,138.471710 
	C154.760117,138.106277 154.873291,137.740829 154.986465,137.375397 
	C154.169113,136.906372 153.351761,136.437347 151.742111,135.942032 
M132.791550,112.798424 
	C132.598221,112.863541 132.404907,112.928658 132.211578,112.993767 
	C132.406036,113.055786 132.600510,113.117813 132.791550,112.798424 
z"/>
<path fill="#161617" opacity="1.000000" stroke="none" 
	d="
M101.042305,132.985687 
	C98.581200,130.703949 96.083778,128.459961 93.665596,126.133598 
	C85.518234,118.295624 84.663330,105.387375 91.683067,96.703247 
	C99.172737,87.437759 112.813828,85.072647 122.238815,91.036652 
	C126.240929,93.569130 128.685379,96.834885 129.865143,101.909256 
	C130.031540,102.677986 130.094986,102.845314 130.158417,103.012642 
	C130.071136,105.361794 129.983856,107.710953 130.145844,110.468208 
	C130.395126,110.876312 130.359070,110.948906 130.359070,110.948906 
	C129.957687,111.652641 129.556290,112.356384 129.394958,113.377129 
	C129.635010,113.694138 129.504791,113.751892 129.504791,113.751892 
	C127.759132,115.617973 126.013474,117.484047 123.736832,119.741302 
	C121.150948,120.534752 119.096046,120.937027 116.756744,121.183609 
	C115.653358,120.340874 114.834366,119.653847 113.965363,118.648331 
	C113.024620,118.523590 112.133896,118.717331 111.246246,118.538155 
	C112.114639,114.835754 113.205223,111.544922 113.784943,108.166435 
	C114.426430,104.427963 114.906998,100.475548 109.363914,98.913490 
	C108.613274,99.835716 107.728523,100.922699 106.543823,101.964821 
	C105.822357,102.649734 105.400841,103.379509 104.610603,104.208435 
	C103.931641,105.538284 103.621399,106.768982 103.186150,108.234482 
	C103.083878,108.997025 103.106606,109.524742 103.078995,110.465683 
	C103.161049,112.249886 103.293449,113.620888 103.442459,115.329857 
	C105.258514,117.743187 106.162598,121.393227 110.271202,119.896286 
	C110.229134,120.525787 110.129593,120.767456 109.815620,120.997620 
	C109.292480,121.000458 109.047646,121.132874 108.501640,121.450272 
	C107.160004,121.636749 106.183403,121.756325 104.971169,121.680771 
	C104.145134,121.363274 103.554726,121.240898 102.675369,120.921082 
	C97.543182,116.253815 96.517776,109.776939 99.674843,103.596405 
	C103.172195,96.749680 107.095161,95.646896 119.746262,98.518570 
	C119.525032,102.878273 119.293785,107.435425 118.694611,112.038780 
	C116.848633,113.906723 115.496513,115.714401 119.001984,117.351456 
	C123.482925,118.894615 124.843307,115.523354 125.837349,112.692825 
	C128.812881,104.220078 127.724960,93.482834 111.651917,90.119072 
	C110.519997,90.072533 109.759567,90.116844 108.664871,90.094742 
	C107.511612,90.245903 106.692619,90.463478 105.515060,90.763512 
	C102.770920,92.253944 100.385338,93.661919 97.696701,95.102798 
	C96.887428,96.001274 96.381203,96.866844 95.593758,97.887085 
	C94.840767,98.947372 94.369003,99.852997 93.592957,100.995682 
	C92.581375,104.485565 91.874084,107.738396 91.098465,111.363029 
	C91.221565,112.710442 91.413002,113.686050 91.581703,114.964172 
	C91.744408,115.842392 91.929855,116.418091 92.065369,117.204369 
	C92.027184,117.733452 92.172295,117.970215 92.567635,118.484650 
	C99.366341,128.704437 104.437950,131.623657 113.042961,130.116714 
	C114.657074,129.834061 116.336517,129.924469 118.335739,129.993652 
	C118.319420,130.724426 117.953178,131.304245 117.621391,131.887573 
	C117.655846,131.891068 117.546371,131.932236 117.144836,131.683624 
	C115.513580,131.681290 114.283859,131.927551 112.634567,132.123322 
	C111.101212,132.186966 109.987427,132.301132 108.530136,132.359024 
	C107.491310,132.295242 106.795998,132.287750 105.754265,132.157379 
	C104.921860,132.068558 104.435883,132.102631 103.667572,132.080627 
	C102.604263,132.344925 101.823280,132.665298 101.042305,132.985687 
z"/>
<path fill="#F5F3F2" opacity="1.000000" stroke="none" 
	d="
M91.166794,110.991219 
	C91.874084,107.738396 92.581375,104.485565 93.622025,101.304535 
	C93.969749,101.582642 93.984108,101.788956 94.023712,102.301559 
	C94.409691,103.253967 94.770432,103.900101 95.375443,104.983727 
	C96.073578,103.690880 96.526764,102.851646 97.109695,101.718628 
	C97.500435,100.624130 97.761421,99.823425 98.371201,98.977966 
	C101.768723,96.758263 105.812134,95.445587 105.873619,90.681053 
	C106.692619,90.463478 107.511612,90.245903 108.669373,90.410995 
	C110.284721,91.361282 111.561310,91.928902 112.837898,92.496521 
	C112.969261,92.197990 113.100632,91.899452 113.232002,91.600922 
	C112.829132,91.137253 112.426270,90.673584 112.023407,90.209915 
	C127.724960,93.482834 128.812881,104.220078 125.837349,112.692825 
	C124.843307,115.523354 123.482925,118.894615 119.324051,117.269913 
	C119.366959,115.217850 119.214752,113.605217 119.062546,111.992577 
	C119.293785,107.435425 119.525032,102.878273 119.746262,98.518570 
	C107.095161,95.646896 103.172195,96.749680 99.674843,103.596405 
	C96.517776,109.776939 97.543182,116.253815 102.566498,121.177414 
	C102.898987,122.249580 103.051392,122.867966 103.203789,123.486359 
	C103.871460,122.949539 104.539124,122.412712 105.206795,121.875893 
	C106.183403,121.756325 107.160004,121.636749 108.601501,121.770233 
	C109.584618,122.453377 110.102844,122.883461 110.621071,123.313538 
	C110.424065,122.545403 110.227066,121.777267 110.030060,121.009132 
	C110.129593,120.767456 110.229134,120.525787 110.401443,119.740372 
	C110.707016,119.038223 110.963341,118.943047 111.243172,118.911072 
	C112.133896,118.717331 113.024620,118.523590 113.942451,119.037827 
	C114.965981,120.843826 115.962410,121.941841 116.965508,123.284416 
	C117.109009,123.804642 117.245834,124.080315 117.382668,124.355988 
	C117.264618,123.897057 117.146568,123.438133 117.030022,122.705582 
	C117.034744,122.067741 117.037949,121.703514 117.041153,121.339294 
	C119.096046,120.937027 121.150948,120.534752 123.588799,120.035477 
	C124.773521,120.295471 125.575287,120.652466 126.680206,121.397049 
	C125.865227,123.511360 124.747093,125.238091 123.308975,126.962769 
	C121.321259,127.921379 119.653534,128.882050 117.985817,129.842712 
	C116.336517,129.924469 114.657074,129.834061 113.042961,130.116714 
	C104.437950,131.623657 99.366341,128.704437 92.877602,118.472046 
	C93.421165,117.918900 93.771614,117.737755 94.122063,117.556610 
	C93.453140,117.369003 92.784218,117.181396 92.115295,116.993797 
	C91.929855,116.418091 91.744408,115.842392 91.772385,114.649933 
	C92.467239,113.249794 92.948685,112.466415 93.430130,111.683037 
	C92.675682,111.452431 91.921242,111.221825 91.166794,110.991219 
M122.160080,123.955162 
	C122.413429,123.803925 122.797539,123.701859 122.878754,123.485886 
	C122.943703,123.313141 122.640320,123.001900 122.500420,122.752129 
	C122.360107,123.002151 122.219795,123.252174 122.160080,123.955162 
z"/>
<path fill="#121212" opacity="1.000000" stroke="none" 
	d="
M55.692062,97.570953 
	C56.871376,96.421165 57.994907,95.694832 59.118439,94.968498 
	C61.024036,98.377968 63.010719,95.645111 64.872322,94.969360 
	C72.600395,92.164093 80.130775,96.624596 80.863029,104.804001 
	C81.409721,110.910599 79.819901,116.540001 74.362900,120.004379 
	C68.913956,123.463631 63.336834,122.771667 57.767544,118.584160 
	C57.048763,124.743736 56.380180,130.473160 55.657970,136.662109 
	C54.422489,136.808868 53.033310,136.973892 50.882847,137.229355 
	C52.502068,123.864258 54.069176,110.929329 55.692062,97.570953 
M69.577919,117.393547 
	C70.806366,116.578964 72.293961,115.986015 73.215256,114.908737 
	C76.122955,111.508842 77.370583,107.261375 75.313538,103.354515 
	C74.165947,101.174957 71.028610,99.123909 68.532486,98.758118 
	C62.702061,97.903717 58.645157,102.646614 58.727253,109.185608 
	C58.804016,115.299622 62.128216,118.091400 69.577919,117.393547 
z"/>
<path fill="#DC0F1C" opacity="1.000000" stroke="none" 
	d="
M48.001926,73.004013 
	C46.313950,82.953171 44.346432,92.865204 43.018520,102.862190 
	C41.752026,112.396790 40.879292,122.005363 40.366184,131.609879 
	C40.078377,136.997162 37.736214,137.668121 32.779045,135.907959 
	C33.987926,125.851273 34.987015,115.661674 36.495247,105.547997 
	C37.864040,96.369354 39.841805,87.282692 41.400681,78.129852 
	C41.608849,76.907616 40.933468,75.534904 40.340313,73.726562 
	C41.010952,72.479996 42.008526,71.738739 43.255249,71.002579 
	C43.504395,71.007660 44.002747,71.014069 44.010700,71.247482 
	C44.359142,71.640419 44.699635,71.799950 45.262878,71.818634 
	C46.324390,72.119858 47.163158,72.561935 48.001926,73.004013 
z"/>
<path fill="#101010" opacity="1.000000" stroke="none" 
	d="
M171.139832,121.278290 
	C172.965698,106.032692 174.826157,91.187447 176.708115,76.170685 
	C178.257767,76.170685 179.532791,76.170685 181.317520,76.170685 
	C180.173126,85.639290 179.040955,95.006752 177.882843,104.588783 
	C183.598862,102.442596 185.758530,94.327896 194.028824,96.319771 
	C189.814453,100.056564 185.905548,103.522491 181.763992,107.194725 
	C185.467773,112.054733 189.060730,116.769302 192.928726,121.844780 
	C183.456085,123.943497 183.573074,113.349480 177.231033,110.702820 
	C176.697525,114.389511 176.187302,117.915215 175.578552,122.121880 
	C174.168396,121.979958 172.671417,121.829300 171.139832,121.278290 
z"/>
<path fill="#141414" opacity="1.000000" stroke="none" 
	d="
M165.094727,95.845787 
	C165.873840,97.767670 166.285385,99.556534 166.946808,102.431534 
	C159.929169,97.502274 154.310074,97.603233 150.504913,101.789452 
	C147.347473,105.263069 146.890640,111.290344 149.523178,114.742050 
	C152.638092,118.826241 157.661499,118.893784 164.303757,114.940788 
	C164.583710,119.557701 164.152039,120.409302 160.028061,121.473976 
	C154.715729,122.845436 149.720886,122.336998 145.881134,117.871170 
	C142.307602,113.714943 141.971313,107.398674 144.873642,101.927025 
	C147.658981,96.675941 153.426300,93.586800 159.451797,94.313736 
	C161.240463,94.529533 162.970337,95.232841 165.094727,95.845787 
z"/>
<path fill="#DB101E" opacity="1.000000" stroke="none" 
	d="
M48.927917,66.445282 
	C53.347263,65.942261 57.766605,65.439240 62.933159,65.017395 
	C67.581718,66.002319 71.536346,67.501976 75.318985,64.348480 
	C78.387032,64.328995 81.409164,67.057594 84.004951,63.995258 
	C85.872002,64.139961 87.739059,64.284660 89.754211,64.822090 
	C90.972504,65.463249 92.042702,65.711670 93.112900,65.960098 
	C94.554253,65.963280 95.995598,65.966461 97.713165,66.444260 
	C97.659767,68.466171 97.330154,70.013451 97.000534,71.560738 
	C82.706398,69.085129 68.407120,68.092041 54.065147,71.255821 
	C53.069271,71.475510 51.950909,71.139938 50.185745,71.011002 
	C48.330719,69.693764 47.179447,68.428093 46.028175,67.162422 
	C46.196659,67.100281 46.365139,67.038147 47.055599,67.005333 
	C48.027687,66.838203 48.477802,66.641747 48.927917,66.445282 
M87.526810,66.624527 
	C87.471893,66.838547 87.416977,67.052567 87.362061,67.266586 
	C87.497391,67.128891 87.632721,66.991203 87.526810,66.624527 
z"/>
<path fill="#D1141F" opacity="1.000000" stroke="none" 
	d="
M109.987671,70.106155 
	C110.523628,70.265327 111.059593,70.424507 111.862717,70.950623 
	C112.408424,71.298470 112.686974,71.279373 112.965515,71.260284 
	C118.542801,74.688713 124.278183,77.896400 129.587616,81.698853 
	C130.936157,82.664642 130.930069,85.521950 131.770294,87.716980 
	C131.994186,87.923820 132.059113,87.896713 132.059113,87.896713 
	C124.506927,83.549568 116.954735,79.202423 109.151291,74.328232 
	C107.709488,72.112343 108.040298,70.871323 109.987671,70.106155 
z"/>
<path fill="#241D1D" opacity="1.000000" stroke="none" 
	d="
M123.628952,126.964813 
	C124.747093,125.238091 125.865227,123.511360 127.031921,121.408676 
	C128.560577,120.396309 130.040649,119.759888 131.364380,118.715698 
	C131.208008,118.307922 131.328842,118.324333 131.328842,118.324333 
	C135.570969,115.542000 135.840027,111.165543 136.340668,106.106071 
	C137.472458,103.984970 138.241806,102.494385 139.011169,101.003799 
	C140.098526,108.667343 137.743164,115.216682 132.980545,121.215660 
	C131.268509,123.372124 130.435638,126.226562 129.287903,128.757965 
	C128.839157,122.802879 126.543831,128.073868 124.821770,128.028168 
	C124.397331,127.969017 124.225655,127.960701 123.946663,127.705948 
	C123.769211,127.294609 123.699081,127.129707 123.628952,126.964813 
z"/>
<path fill="#DB0D19" opacity="1.000000" stroke="none" 
	d="
M43.006104,70.997490 
	C42.008526,71.738739 41.010952,72.479996 40.001434,73.589844 
	C36.253544,75.000168 32.517597,76.041893 28.140272,76.864853 
	C27.007841,75.800934 26.516790,74.955765 26.025738,74.110603 
	C29.642735,71.285263 33.259735,69.893982 37.583862,69.893982 
	C38.864052,69.624649 39.437103,69.333916 40.010159,69.043190 
	C40.828064,68.712830 41.645973,68.382469 42.961411,68.254532 
	C43.307999,69.303802 43.157051,70.150642 43.006104,70.997490 
z"/>
<path fill="#6C151B" opacity="1.000000" stroke="none" 
	d="
M139.053513,100.585846 
	C138.241806,102.494385 137.472458,103.984970 136.463287,105.703781 
	C134.994354,100.105339 133.765259,94.278671 132.297638,88.174362 
	C132.059113,87.896713 131.994186,87.923820 131.983887,87.956322 
	C138.027328,89.896683 138.558670,95.034004 139.053513,100.585846 
z"/>
<path fill="#DD2029" opacity="1.000000" stroke="none" 
	d="
M25.663237,74.131500 
	C26.516790,74.955765 27.007841,75.800934 27.736322,76.816078 
	C25.461962,81.892693 20.270781,80.507729 15.903713,82.012772 
	C15.518568,82.063263 15.422475,82.030418 15.422475,82.030418 
	C15.282413,78.609619 17.586258,77.357315 20.314123,76.368065 
	C22.019836,75.749489 23.641407,74.898888 25.663237,74.131500 
z"/>
<path fill="#DB0D19" opacity="1.000000" stroke="none" 
	d="
M109.808090,69.960533 
	C108.040298,70.871323 107.709488,72.112343 108.888634,74.120895 
	C108.157967,74.301544 107.438690,74.162476 106.323547,73.666977 
	C105.291451,73.186134 104.655220,73.061707 104.018990,72.937286 
	C101.922791,72.601906 99.826591,72.266518 97.365463,71.745934 
	C97.330154,70.013451 97.659767,68.466171 97.995644,66.574142 
	C100.762505,67.146950 103.523094,68.064491 106.881058,69.271538 
	C107.896973,69.607155 108.315521,69.653275 108.734070,69.699387 
	C109.049782,69.601868 109.347931,69.640373 109.808090,69.960533 
z"/>
<path fill="#CCCCCC" opacity="1.000000" stroke="none" 
	d="
M152.138260,135.955185 
	C153.351761,136.437347 154.169113,136.906372 154.986465,137.375397 
	C154.873291,137.740829 154.760117,138.106277 154.646942,138.471710 
	C149.245285,138.471710 143.843643,138.471710 138.442001,138.471710 
	C138.379562,137.961548 138.317123,137.451385 138.254684,136.941223 
	C142.495758,135.035904 147.008148,134.805176 152.138260,135.955185 
z"/>
<path fill="#DB0D19" opacity="1.000000" stroke="none" 
	d="
M15.183207,82.266098 
	C15.422475,82.030418 15.518568,82.063263 15.550818,82.024109 
	C15.135374,83.289803 15.072363,85.101250 14.159947,85.794083 
	C12.257151,87.238930 9.905394,88.092522 7.665978,89.225525 
	C6.669881,83.149864 9.466022,80.686920 15.183207,82.266098 
z"/>
<path fill="#E74E5C" opacity="1.000000" stroke="none" 
	d="
M75.051125,64.081955 
	C71.536346,67.501976 67.581718,66.002319 63.295429,65.018578 
	C65.749771,64.286240 68.561180,63.413193 71.436974,63.049999 
	C73.822868,62.748684 76.284607,63.047859 78.687004,63.420708 
	C77.457886,63.867584 76.254501,63.974770 75.051125,64.081955 
z"/>
<path fill="#DFE0E3" opacity="1.000000" stroke="none" 
	d="
M123.308968,126.962769 
	C123.699081,127.129707 123.769211,127.294609 123.915848,128.072281 
	C124.670906,129.133255 125.349464,129.581467 126.010956,130.017120 
	C125.993889,130.004562 125.956520,129.984543 126.142593,130.213043 
	C126.566025,130.752396 126.803391,131.063232 127.040756,131.374084 
	C126.224388,131.927429 125.408020,132.480759 123.925125,132.851013 
	C121.368034,132.406647 119.477486,132.145355 117.586929,131.884064 
	C117.953178,131.304245 118.319420,130.724426 118.335739,129.993652 
	C119.653534,128.882050 121.321259,127.921379 123.308968,126.962769 
z"/>
<path fill="#DE1A28" opacity="1.000000" stroke="none" 
	d="
M43.255249,71.002579 
	C43.157051,70.150642 43.307999,69.303802 43.296425,68.262314 
	C43.891891,67.740738 44.649883,67.413803 45.718025,67.124649 
	C47.179447,68.428093 48.330719,69.693764 49.809616,71.007843 
	C49.660946,71.703056 49.184654,72.349876 48.355145,73.000351 
	C47.163158,72.561935 46.324390,72.119858 45.143074,71.608490 
	C44.591877,71.277153 44.325954,71.102104 44.002747,71.014069 
	C44.002747,71.014069 43.504395,71.007660 43.255249,71.002579 
z"/>
<path fill="#7C7D7F" opacity="1.000000" stroke="none" 
	d="
M118.996918,135.978958 
	C116.921272,136.321350 114.845619,136.663742 112.393021,136.731323 
	C111.917122,136.156570 111.894791,135.851013 112.120956,135.344070 
	C112.393715,134.820618 112.494598,134.492981 113.040695,134.220490 
	C114.354523,134.144302 115.223137,134.012955 116.154808,134.237686 
	C117.156906,134.680862 118.095955,134.767975 119.038925,135.136505 
	C119.027534,135.604950 119.012230,135.791962 118.996918,135.978958 
z"/>
<path fill="#8B8D8F" opacity="1.000000" stroke="none" 
	d="
M117.621384,131.887573 
	C119.477486,132.145355 121.368034,132.406647 123.585312,132.836456 
	C122.995651,133.802460 122.079262,134.599945 120.619507,135.249374 
	C119.933716,134.951340 119.791290,134.801346 119.700745,134.318680 
	C118.798065,133.692886 117.843498,133.399765 116.966202,132.764282 
	C117.211105,132.258713 117.378738,132.095474 117.546371,131.932236 
	C117.546371,131.932236 117.655846,131.891068 117.621384,131.887573 
z"/>
<path fill="#DFE0E3" opacity="1.000000" stroke="none" 
	d="
M125.074524,128.078995 
	C126.543831,128.073868 128.839157,122.802879 129.191315,129.149780 
	C129.008408,129.546097 129.020996,129.497757 128.642548,129.393982 
	C127.494919,129.521652 126.725723,129.753098 125.956520,129.984543 
	C125.956520,129.984543 125.993889,130.004562 126.036743,129.715057 
	C125.744576,128.976685 125.409554,128.527847 125.074524,128.078995 
z"/>
<path fill="#DA0B16" opacity="1.000000" stroke="none" 
	d="
M75.318985,64.348480 
	C76.254501,63.974770 77.457886,63.867584 79.092026,63.602001 
	C80.379570,63.481438 81.236336,63.519276 82.739548,63.778198 
	C83.622581,63.958912 83.859169,63.918537 84.095764,63.878162 
	C84.095764,63.878162 84.098335,63.973961 84.051643,63.984612 
	C81.409164,67.057594 78.387032,64.328995 75.318985,64.348480 
z"/>
<path fill="#F5F3F2" opacity="1.000000" stroke="none" 
	d="
M100.778008,133.155945 
	C101.823280,132.665298 102.604263,132.344925 103.729248,132.390015 
	C104.735443,133.235764 105.397636,133.716034 106.062782,134.294128 
	C106.065727,134.391968 106.040169,134.586075 105.706802,134.753479 
	C104.884621,135.012085 104.395805,135.103256 103.522415,135.144562 
	C102.108696,135.094223 101.079529,135.093750 100.050369,135.093292 
	C100.204819,134.504257 100.359261,133.915222 100.778008,133.155945 
z"/>
<path fill="#8B8D8F" opacity="1.000000" stroke="none" 
	d="
M103.906982,135.194443 
	C104.395805,135.103256 104.884621,135.012085 106.071541,134.828461 
	C107.507515,134.796631 108.245384,134.857239 108.971970,135.081909 
	C108.960678,135.245987 109.044754,135.563980 108.884888,135.720139 
	C108.499680,136.223434 108.274345,136.570587 108.049011,136.917725 
	C106.855202,136.872894 105.661400,136.828064 104.185333,136.256104 
	C103.904381,135.550812 103.905678,135.372635 103.906982,135.194443 
z"/>
<path fill="#535353" opacity="1.000000" stroke="none" 
	d="
M108.439697,136.964508 
	C108.274345,136.570587 108.499680,136.223434 109.234848,135.854095 
	C110.479485,135.734543 111.214279,135.637207 111.949081,135.539871 
	C111.894791,135.851013 111.917122,136.156570 111.993378,136.686737 
	C110.923920,136.948395 109.877144,136.979843 108.439697,136.964508 
z"/>
<path fill="#EEEEEE" opacity="1.000000" stroke="none" 
	d="
M130.504623,103.007271 
	C130.094986,102.845314 130.031540,102.677986 130.023834,102.248077 
	C131.057785,102.090416 132.036041,102.195343 133.013931,102.648102 
	C133.013580,102.995934 132.925446,103.092331 132.925446,103.092331 
	C132.233902,103.062187 131.542358,103.032043 130.504623,103.007271 
z"/>
<path fill="#EEEEEE" opacity="1.000000" stroke="none" 
	d="
M131.202576,118.368652 
	C130.302429,118.339554 129.407730,118.249718 128.513031,118.159882 
	C128.524963,117.845947 128.536896,117.532013 128.548828,117.218079 
	C129.418823,117.380493 130.288834,117.542908 131.243835,118.014832 
	C131.328842,118.324333 131.208008,118.307922 131.202576,118.368652 
z"/>
<path fill="#535353" opacity="1.000000" stroke="none" 
	d="
M103.522415,135.144562 
	C103.905678,135.372635 103.904381,135.550812 103.938339,135.994186 
	C102.792801,136.072388 101.612022,135.885376 100.240799,135.395828 
	C101.079529,135.093750 102.108696,135.094223 103.522415,135.144562 
z"/>
<path fill="#D1141F" opacity="1.000000" stroke="none" 
	d="
M104.269882,73.088409 
	C104.655220,73.061707 105.291451,73.186134 105.965485,73.588547 
	C105.509117,73.657532 105.014946,73.448524 104.269882,73.088409 
z"/>
<path fill="#DA0B16" opacity="1.000000" stroke="none" 
	d="
M92.995743,65.641266 
	C92.042702,65.711670 90.972504,65.463249 90.106194,65.013168 
	C91.166252,64.981827 92.022423,65.152130 92.995743,65.641266 
z"/>
<path fill="#7C7D7F" opacity="1.000000" stroke="none" 
	d="
M126.142593,130.213043 
	C126.725723,129.753098 127.494919,129.521652 128.658249,129.396713 
	C129.061264,129.752411 129.070160,130.001617 129.040009,130.619354 
	C129.000961,130.987885 128.972610,130.919678 128.972610,130.919678 
	C128.551270,131.045563 128.129929,131.171448 127.374664,131.335724 
	C126.803391,131.063232 126.566025,130.752396 126.142593,130.213043 
z"/>
<path fill="#EEEEEE" opacity="1.000000" stroke="none" 
	d="
M130.738586,110.945023 
	C130.359070,110.948906 130.395126,110.876312 130.352173,110.862152 
	C130.863281,110.582832 131.417343,110.317665 132.483551,110.021255 
	C132.995667,109.990013 133.115402,110.086227 133.115402,110.086227 
	C132.449646,110.371201 131.783875,110.656174 130.738586,110.945023 
z"/>
<path fill="#EEEEEE" opacity="1.000000" stroke="none" 
	d="
M132.793259,112.989128 
	C132.600510,113.117813 132.406036,113.055786 132.211578,112.993767 
	C132.404907,112.928658 132.598221,112.863541 132.793259,112.989128 
z"/>
<path fill="#EEEEEE" opacity="1.000000" stroke="none" 
	d="
M132.938354,109.938896 
	C133.065796,109.454445 133.250549,109.021118 133.435303,108.587784 
	C133.464569,108.987930 133.493835,109.388069 133.319244,109.937225 
	C133.115402,110.086227 132.995667,109.990013 132.938354,109.938896 
z"/>
<path fill="#DE1A28" opacity="1.000000" stroke="none" 
	d="
M48.678200,66.405937 
	C48.477802,66.641747 48.027687,66.838203 47.324120,67.026604 
	C47.523270,66.801224 47.975872,66.583900 48.678200,66.405937 
z"/>
<path fill="#DC0F1C" opacity="1.000000" stroke="none" 
	d="
M39.678993,69.023392 
	C39.437103,69.333916 38.864052,69.624649 37.951931,69.892151 
	C38.191185,69.580482 38.769505,69.292038 39.678993,69.023392 
z"/>
<path fill="#8B8D8F" opacity="1.000000" stroke="none" 
	d="
M119.259872,135.998047 
	C119.012230,135.791962 119.027534,135.604950 119.185081,135.063721 
	C119.327316,134.709488 119.648857,134.651337 119.648857,134.651337 
	C119.791290,134.801346 119.933716,134.951340 120.269699,135.347778 
	C120.149773,135.735199 119.836296,135.876175 119.259872,135.998047 
z"/>
<path fill="#E74E5C" opacity="1.000000" stroke="none" 
	d="
M83.953949,63.747643 
	C83.859169,63.918537 83.622581,63.958912 83.054306,63.858589 
	C83.085800,63.684303 83.448967,63.650715 83.953949,63.747643 
z"/>
<path fill="#B8B9BB" opacity="1.000000" stroke="none" 
	d="
M128.964294,130.985657 
	C129.094299,131.128952 129.261002,131.274475 129.427689,131.420013 
	C129.314804,131.370178 129.201935,131.320328 129.030823,131.095093 
	C128.972610,130.919678 129.000961,130.987885 128.964294,130.985657 
z"/>
<path fill="#EEEEEE" opacity="1.000000" stroke="none" 
	d="
M129.653992,113.625473 
	C129.896317,113.721794 130.119675,113.886772 130.343033,114.051750 
	C130.157578,114.062607 129.972137,114.073463 129.645737,113.918106 
	C129.504791,113.751892 129.635010,113.694138 129.653992,113.625473 
z"/>
<path fill="#EEEEEE" opacity="1.000000" stroke="none" 
	d="
M133.062378,102.952530 
	C133.213867,103.098427 133.316559,103.287727 133.419266,103.477020 
	C133.311279,103.438835 133.203293,103.400650 133.010376,103.227402 
	C132.925446,103.092331 133.013580,102.995934 133.062378,102.952530 
z"/>
<path fill="#D1141F" opacity="1.000000" stroke="none" 
	d="
M108.511650,69.455750 
	C108.315521,69.653275 107.896973,69.607155 107.246536,69.338829 
	C107.439507,69.148460 107.864365,69.180290 108.511650,69.455750 
z"/>
<path fill="#DB0D19" opacity="1.000000" stroke="none" 
	d="
M112.744011,71.123985 
	C112.686974,71.279373 112.408424,71.298470 112.066116,71.153030 
	C112.175743,70.988228 112.349129,70.987953 112.744011,71.123985 
z"/>
<path fill="#F6F6F6" opacity="1.000000" stroke="none" 
	d="
M111.246246,118.538162 
	C110.963341,118.943047 110.707016,119.038223 110.343964,119.352547 
	C106.162598,121.393227 105.258514,117.743187 103.653633,115.301117 
	C104.214752,114.742516 104.581322,114.550636 105.269440,114.110596 
	C105.672661,112.541061 105.754311,111.219681 105.872124,109.535812 
	C105.919449,108.446121 105.930611,107.718895 106.162292,106.766380 
	C106.536461,105.030617 106.690117,103.520157 106.843781,102.009689 
	C107.728523,100.922699 108.613274,99.835716 109.363914,98.913490 
	C114.906998,100.475548 114.426430,104.427963 113.784943,108.166435 
	C113.205223,111.544922 112.114639,114.835754 111.246246,118.538162 
z"/>
<path fill="#F5EFF0" opacity="1.000000" stroke="none" 
	d="
M105.515060,90.763512 
	C105.812134,95.445587 101.768723,96.758263 98.359184,98.965675 
	C97.998375,98.998131 97.975739,98.974625 97.985451,98.584732 
	C97.996689,97.153198 97.998215,96.111542 97.999748,95.069893 
	C100.385338,93.661919 102.770920,92.253944 105.515060,90.763512 
z"/>
<path fill="#535353" opacity="1.000000" stroke="none" 
	d="
M118.694611,112.038780 
	C119.214752,113.605217 119.366959,115.217850 119.197113,116.912033 
	C115.496513,115.714401 116.848633,113.906723 118.694611,112.038780 
z"/>
<path fill="#535353" opacity="1.000000" stroke="none" 
	d="
M106.543823,101.964821 
	C106.690117,103.520157 106.536461,105.030617 105.972641,106.791336 
	C105.562477,107.041588 105.180016,107.051796 105.110626,106.688347 
	C105.020592,105.586357 104.999954,104.847824 104.979317,104.109283 
	C105.400841,103.379509 105.822357,102.649734 106.543823,101.964821 
z"/>
<path fill="#F5EFF0" opacity="1.000000" stroke="none" 
	d="
M93.998474,101.995277 
	C93.984108,101.788956 93.969749,101.582642 93.926308,101.067474 
	C94.369003,99.852997 94.840767,98.947372 95.757370,98.170486 
	C96.793381,98.524361 97.384560,98.749489 97.975739,98.974625 
	C97.975739,98.974625 97.998375,98.998131 98.010391,99.010422 
	C97.761421,99.823425 97.500435,100.624130 96.737534,101.711624 
	C95.489899,101.997360 94.744186,101.996315 93.998474,101.995277 
z"/>
<path fill="#B8B9BB" opacity="1.000000" stroke="none" 
	d="
M112.120956,135.344070 
	C111.214279,135.637207 110.479485,135.734543 109.394714,135.697937 
	C109.044754,135.563980 108.960678,135.245987 108.951279,134.769882 
	C108.919144,133.667618 108.896393,133.041458 108.873650,132.415298 
	C109.987427,132.301132 111.101212,132.186966 112.593231,132.464081 
	C112.846146,133.292007 112.720810,133.728668 112.595482,134.165329 
	C112.494598,134.492981 112.393715,134.820618 112.120956,135.344070 
z"/>
<path fill="#FEFEFE" opacity="1.000000" stroke="none" 
	d="
M104.947884,114.358749 
	C104.581322,114.550636 104.214752,114.742516 103.637024,114.963135 
	C103.293449,113.620888 103.161049,112.249886 103.296402,110.424232 
	C103.564148,109.969574 104.001831,110.035316 104.001831,110.035316 
	C104.001831,110.035316 104.444420,110.034462 104.417053,110.476517 
	C104.575752,112.065300 104.761818,113.212021 104.947884,114.358749 
z"/>
<path fill="#D8D8D9" opacity="1.000000" stroke="none" 
	d="
M116.756744,121.183601 
	C117.037949,121.703514 117.034744,122.067741 117.011925,122.719902 
	C116.992317,123.007843 116.958832,123.039864 116.958832,123.039864 
	C115.962410,121.941841 114.965981,120.843826 113.992462,119.356308 
	C114.834366,119.653847 115.653358,120.340874 116.756744,121.183601 
z"/>
<path fill="#FEFEFE" opacity="1.000000" stroke="none" 
	d="
M108.530136,132.359024 
	C108.896393,133.041458 108.919144,133.667618 108.962570,134.605804 
	C108.245384,134.857239 107.507515,134.796631 106.404907,134.661041 
	C106.040169,134.586075 106.065727,134.391968 106.047012,133.971298 
	C106.052429,133.127167 106.076561,132.703705 106.100685,132.280243 
	C106.795998,132.287750 107.491310,132.295242 108.530136,132.359024 
z"/>
<path fill="#F5EFF0" opacity="1.000000" stroke="none" 
	d="
M111.651917,90.119072 
	C112.426270,90.673584 112.829132,91.137253 113.232002,91.600922 
	C113.100632,91.899452 112.969261,92.197990 112.837898,92.496521 
	C111.561310,91.928902 110.284721,91.361282 109.003632,90.477402 
	C109.759567,90.116844 110.519997,90.072533 111.651917,90.119072 
z"/>
<path fill="#EEEEEE" opacity="1.000000" stroke="none" 
	d="
M113.040695,134.220490 
	C112.720810,133.728668 112.846146,133.292007 113.012802,132.514587 
	C114.283859,131.927551 115.513580,131.681290 117.144836,131.683624 
	C117.378738,132.095474 117.211105,132.258713 116.979454,132.751526 
	C116.915436,133.081116 116.929176,133.068481 116.708298,133.118713 
	C116.200844,133.342010 116.060616,133.595917 116.068756,133.919495 
	C116.070778,133.908279 116.091751,133.881607 116.091751,133.881607 
	C115.223137,134.012955 114.354523,134.144302 113.040695,134.220490 
z"/>
<path fill="#EBE3E2" opacity="1.000000" stroke="none" 
	d="
M91.098465,111.363029 
	C91.921242,111.221825 92.675682,111.452431 93.430130,111.683037 
	C92.948685,112.466415 92.467239,113.249794 91.795120,114.347412 
	C91.413002,113.686050 91.221565,112.710442 91.098465,111.363029 
z"/>
<path fill="#F5F3F2" opacity="1.000000" stroke="none" 
	d="
M97.985451,98.584732 
	C97.384560,98.749489 96.793381,98.524361 96.038589,98.015823 
	C96.381203,96.866844 96.887428,96.001274 97.696701,95.102798 
	C97.998215,96.111542 97.996689,97.153198 97.985451,98.584732 
z"/>
<path fill="#D8D8D9" opacity="1.000000" stroke="none" 
	d="
M109.815620,120.997620 
	C110.227066,121.777267 110.424065,122.545403 110.621071,123.313538 
	C110.102844,122.883461 109.584618,122.453377 108.966537,121.703331 
	C109.047646,121.132874 109.292480,121.000458 109.815620,120.997620 
z"/>
<path fill="#D8D8D9" opacity="1.000000" stroke="none" 
	d="
M104.971169,121.680771 
	C104.539124,122.412712 103.871460,122.949539 103.203789,123.486359 
	C103.051392,122.867966 102.898987,122.249580 102.855453,121.374855 
	C103.554726,121.240898 104.145134,121.363274 104.971169,121.680771 
z"/>
<path fill="#B8B9BB" opacity="1.000000" stroke="none" 
	d="
M105.754265,132.157379 
	C106.076561,132.703705 106.052429,133.127167 106.044067,133.873459 
	C105.397636,133.716034 104.735443,133.235764 104.011574,132.446106 
	C104.435883,132.102631 104.921860,132.068558 105.754265,132.157379 
z"/>
<path fill="#FEFEFE" opacity="1.000000" stroke="none" 
	d="
M104.610603,104.208435 
	C104.999954,104.847824 105.020592,105.586357 105.040817,106.915474 
	C105.040390,107.506050 104.933876,107.969223 104.528343,107.984802 
	C103.852257,108.000137 103.581703,107.999901 103.311157,107.999672 
	C103.621399,106.768982 103.931641,105.538284 104.610603,104.208435 
z"/>
<path fill="#B8B9BB" opacity="1.000000" stroke="none" 
	d="
M103.186142,108.234482 
	C103.581703,107.999901 103.852257,108.000137 104.616547,108.310974 
	C105.118965,109.071648 105.127640,109.521736 104.962631,109.979736 
	C104.788963,109.987656 104.444420,110.034462 104.444420,110.034462 
	C104.444420,110.034462 104.001831,110.035316 104.001831,110.035316 
	C104.001831,110.035316 103.564148,109.969574 103.346741,110.011017 
	C103.106606,109.524742 103.083878,108.997025 103.186142,108.234482 
z"/>
<path fill="#EBE3E2" opacity="1.000000" stroke="none" 
	d="
M92.065369,117.204369 
	C92.784218,117.181396 93.453140,117.369003 94.122063,117.556610 
	C93.771614,117.737755 93.421165,117.918900 92.760742,118.112640 
	C92.172295,117.970215 92.027184,117.733452 92.065369,117.204369 
z"/>
<path fill="#EBE3E2" opacity="1.000000" stroke="none" 
	d="
M94.023712,102.301559 
	C94.744186,101.996315 95.489899,101.997360 96.607773,102.005417 
	C96.526764,102.851646 96.073578,103.690880 95.375443,104.983727 
z"/>
<path fill="#EEEEEE" opacity="1.000000" stroke="none" 
	d="
M122.119781,123.728683 
	C122.219795,123.252174 122.360107,123.002151 122.500420,122.752129 
	C122.640320,123.001900 122.943703,123.313141 122.878754,123.485886 
	C122.797539,123.701859 122.413429,123.803925 122.119781,123.728683 
z"/>
<path fill="#D8D8D9" opacity="1.000000" stroke="none" 
	d="
M117.010414,122.993523 
	C117.146568,123.438133 117.264618,123.897057 117.382668,124.355988 
	C117.245834,124.080315 117.109009,123.804642 116.965508,123.284416 
	C116.958832,123.039864 116.992317,123.007843 117.010414,122.993523 
z"/>
<path fill="#F8F8F8" opacity="1.000000" stroke="none" 
	d="
M69.212280,117.538879 
	C62.128216,118.091400 58.804016,115.299622 58.727253,109.185608 
	C58.645157,102.646614 62.702061,97.903717 68.532486,98.758118 
	C71.028610,99.123909 74.165947,101.174957 75.313538,103.354515 
	C77.370583,107.261375 76.122955,111.508842 73.215256,114.908737 
	C72.293961,115.986015 70.806366,116.578964 69.212280,117.538879 
z"/>
<path fill="#DB0D19" opacity="1.000000" stroke="none" 
	d="
M44.010700,71.247482 
	C44.325954,71.102104 44.591877,71.277153 44.920322,71.749344 
	C44.699635,71.799950 44.359142,71.640419 44.010700,71.247482 
z"/>
<path fill="#DA0B16" opacity="1.000000" stroke="none" 
	d="
M87.647430,66.739021 
	C87.632721,66.991203 87.497391,67.128891 87.362061,67.266586 
	C87.416977,67.052567 87.471893,66.838547 87.647430,66.739021 
z"/>
<path fill="#7C7D7F" opacity="1.000000" stroke="none" 
	d="
M124.821770,128.028168 
	C125.409554,128.527847 125.744576,128.976685 126.053818,129.727600 
	C125.349464,129.581467 124.670906,129.133255 124.023163,128.318726 
	C124.225655,127.960701 124.397331,127.969017 124.821770,128.028168 
z"/>
<path fill="#EEEEEE" opacity="1.000000" stroke="none" 
	d="
M119.700745,134.318680 
	C119.648857,134.651337 119.327316,134.709488 119.181152,134.782288 
	C118.095955,134.767975 117.156906,134.680862 116.154808,134.237686 
	C116.091751,133.881607 116.070778,133.908279 116.284607,133.862122 
	C116.776062,133.644058 116.919640,133.394897 116.929176,133.068481 
	C116.929176,133.068481 116.915436,133.081116 116.902191,133.093872 
	C117.843498,133.399765 118.798065,133.692886 119.700745,134.318680 
z"/>
<path fill="#7C7D7F" opacity="1.000000" stroke="none" 
	d="
M105.269440,114.110596 
	C104.761818,113.212021 104.575752,112.065300 104.417053,110.476517 
	C104.444420,110.034462 104.788963,109.987656 105.139130,109.978577 
	C105.489288,109.969498 105.835968,109.898293 105.835968,109.898293 
	C105.754311,111.219681 105.672661,112.541061 105.269440,114.110596 
z"/>
<path fill="#241D1D" opacity="1.000000" stroke="none" 
	d="
M105.872124,109.535812 
	C105.835968,109.898293 105.489288,109.969498 105.312798,109.970657 
	C105.127640,109.521736 105.118965,109.071648 105.022079,108.295395 
	C104.933876,107.969223 105.040390,107.506050 105.110199,107.278923 
	C105.180016,107.051796 105.562477,107.041588 105.752129,107.016632 
	C105.930611,107.718895 105.919449,108.446121 105.872124,109.535812 
z"/>
<path fill="#DFE0E3" opacity="1.000000" stroke="none" 
	d="
M116.708298,133.118713 
	C116.919640,133.394897 116.776062,133.644058 116.282593,133.873322 
	C116.060616,133.595917 116.200844,133.342010 116.708298,133.118713 
z"/>
</svg>