<?xml version="1.0" standalone="no"?>
<!DOCTYPE svg PUBLIC "-//W3C//DTD SVG 20010904//EN"
 "http://www.w3.org/TR/2001/REC-SVG-20010904/DTD/svg10.dtd">
<svg version="1.0" xmlns="http://www.w3.org/2000/svg"
 width="1578.000000pt" height="312.000000pt" viewBox="0 0 1578.000000 312.000000"
 preserveAspectRatio="xMidYMid meet">

<g transform="translate(0.000000,312.000000) scale(0.100000,-0.100000)"
fill="#000000" stroke="none">
<path d="M7713 3052 c-55 -15 -111 -36 -122 -46 l-22 -20 3 -1110 3 -1111 24
-60 c36 -90 106 -155 199 -184 62 -20 87 -23 170 -19 97 5 144 19 172 53 11
14 12 29 1 93 -17 102 -30 122 -82 122 -72 0 -128 20 -144 51 -13 24 -15 182
-15 1117 0 1087 0 1089 -21 1116 -25 32 -37 32 -166 -2z"/>
<path d="M13613 3051 c-56 -15 -111 -36 -123 -46 -19 -17 -20 -29 -20 -317 0
-280 -1 -299 -17 -294 -10 3 -61 13 -113 23 -75 14 -145 18 -330 17 -209 -1
-244 -3 -315 -22 -193 -53 -327 -153 -403 -301 -86 -165 -117 -333 -116 -636
2 -412 54 -619 195 -769 95 -102 197 -156 363 -192 94 -21 373 -29 509 -15
125 13 352 61 417 89 65 28 116 88 130 153 8 40 10 358 8 1182 -3 1104 -3
1129 -22 1143 -26 19 -43 17 -163 -15z m-417 -890 c50 -5 132 -17 182 -27 l92
-17 0 -648 c0 -401 -4 -650 -10 -654 -5 -3 -60 -15 -122 -28 -154 -29 -452
-32 -542 -4 -209 65 -280 241 -280 697 0 191 3 239 21 322 51 236 144 330 353
358 79 11 201 11 306 1z"/>
<path d="M6180 2425 c-210 -23 -431 -75 -471 -111 -23 -21 -24 -58 -4 -155 16
-76 36 -109 66 -109 10 0 84 15 166 34 241 55 283 60 503 61 234 0 295 -12
357 -68 43 -40 52 -80 53 -233 l0 -112 -172 -7 c-368 -14 -680 -65 -816 -134
-165 -83 -246 -223 -259 -448 -18 -315 107 -518 371 -602 118 -38 232 -51 441
-51 240 0 494 39 599 92 73 36 108 69 135 127 l26 56 3 620 c2 411 -1 643 -8
690 -32 205 -161 308 -440 350 -115 18 -388 18 -550 0z m670 -1289 l0 -314
-32 -11 c-133 -43 -440 -65 -588 -42 -135 21 -221 77 -264 171 -17 37 -21 65
-21 160 0 123 14 170 68 220 85 81 315 123 705 128 l132 2 0 -314z"/>
<path d="M8940 2425 c-210 -23 -431 -75 -471 -111 -23 -21 -24 -58 -4 -155 16
-76 36 -109 66 -109 10 0 84 15 166 34 241 55 283 60 503 61 234 0 295 -12
357 -68 43 -40 52 -80 53 -233 l0 -112 -172 -7 c-368 -14 -680 -65 -816 -134
-165 -83 -246 -223 -259 -448 -22 -374 155 -585 535 -639 145 -20 420 -18 578
5 278 41 380 88 433 200 l26 56 3 620 c3 655 0 719 -42 810 -55 122 -188 197
-406 230 -115 18 -388 18 -550 0z m670 -1289 l0 -314 -32 -11 c-133 -43 -440
-65 -588 -42 -135 21 -221 77 -264 171 -17 37 -21 65 -21 160 0 123 14 170 68
220 85 81 315 123 705 128 l132 2 0 -314z"/>
<path d="M11040 2434 c-482 -57 -689 -124 -741 -237 -18 -40 -19 -77 -19 -828
0 -760 1 -788 19 -810 18 -22 27 -24 134 -27 109 -4 115 -3 143 21 l29 25 3
750 2 749 59 17 c225 63 606 91 718 53 53 -19 94 -56 116 -106 9 -19 13 -233
17 -743 l5 -717 23 -23 c21 -21 31 -23 143 -23 116 0 122 1 140 24 19 24 20
43 17 765 -3 732 -3 742 -25 805 -25 74 -81 159 -126 194 -108 82 -212 108
-442 112 -99 2 -196 1 -215 -1z"/>
<path d="M14713 2426 c-307 -58 -475 -205 -556 -486 -36 -123 -47 -237 -47
-484 0 -408 56 -610 212 -765 102 -102 217 -155 403 -187 125 -22 397 -14 511
15 288 72 438 234 509 551 26 115 33 568 11 718 -52 356 -202 539 -504 619
-84 22 -122 26 -282 29 -127 2 -207 -1 -257 -10z m353 -267 c196 -27 286 -103
336 -285 20 -74 22 -100 22 -409 0 -310 -1 -335 -22 -409 -53 -190 -141 -260
-360 -287 -169 -21 -349 10 -434 74 -132 100 -164 243 -155 690 4 226 7 273
26 341 25 94 56 150 109 198 88 80 281 115 478 87z"/>
<path d="M3864 2390 c-40 -16 -54 -49 -54 -128 0 -82 17 -126 52 -136 13 -3
260 -6 551 -6 290 0 527 -3 527 -7 0 -4 -15 -23 -34 -43 -18 -19 -201 -231
-407 -470 -205 -239 -434 -504 -507 -589 -74 -84 -141 -170 -149 -189 -11 -26
-14 -64 -11 -138 3 -92 6 -106 26 -126 l23 -23 687 -3 c455 -2 699 0 723 7 46
14 59 43 59 136 0 64 -3 78 -24 102 l-24 28 -536 5 -535 5 112 131 c62 72 180
209 262 304 603 699 713 828 724 849 6 11 11 71 11 134 0 98 -3 118 -19 138
l-19 24 -709 2 c-389 1 -718 -2 -729 -7z"/>
</g>
</svg>
